{"title":"Fifty Shades of Grey 2015 UNCUT HC HDRIP XViD AC3 MURD3R","uid":11739212,"size":1298709864,"categoryP":"video","categoryS":"hd___movies","magnet":"?xt=urn:btih:dcc1f266d86fa5f624e11a4315e3625f65fdabb3&amp;dn=Fifty+Shades+of+Grey+2015+UNCUT+HC+HDRIP+XViD+AC3+MURD3R&amp;tr=udp%3A%2F%2Ftracker.openbittorrent.com%3A80&amp;tr=udp%3A%2F%2Fopen.demonii.com%3A1337&amp;tr=udp%3A%2F%2Ftracker.coppersurfer.tk%3A6969&amp;tr=udp%3A%2F%2Fexodus.desync.com%3A6969","seeders":36,"leechers":8,"uploader":"makintos13","files":10,"time":1425696839,"description":" &lt;a href=&quot;http://imgsleek.com/img-54fa5a5603e8d.html&quot; rel=&quot;nofollow&quot; target=&quot;_NEW&quot;&gt;http://imgsleek.com/img-54fa5a5603e8d.html&lt;/a&gt;\n &lt;a href=&quot;\nhttp://imgsleek.com/img-54fa5a6992737.html&quot; rel=&quot;nofollow&quot; target=&quot;_NEW&quot;&gt;\nhttp://imgsleek.com/img-54fa5a6992737.html&lt;/a&gt;\n\n\nFormat : AVI\nFormat/Info : Audio Video Interleave\nFile size : 1.21 GiB\nDuration : 2h 4mn\nOverall bit rate : 1 386 Kbps\n\nVideo\nID : 0\nFormat : xvid\nCodec ID : xvid\nDuration : 2h 4mn\nBit rate : 1 183 Kbps\nWidth : 720 pixels\nHeight : 304 pixels\nDisplay aspect ratio : 2.35:1\nFrame rate : 25.000 fps\nBits/(Pixel*Frame) : 0.216\nStream size : 1.03 GiB (85%)\n\nAudio\nID : 1\nFormat : AC-3\nFormat/Info : Audio Coding 3\nMode extension : CM (complete main)\nFormat settings, Endianness : Big\nCodec ID : 2000\nDuration : 2h 4mn\nBit rate mode : Constant\nBit rate : 192 Kbps\nChannel(s) : 2 channels\nChannel positions : Front: L R\nSampling rate : 44.1 KHz\nBit depth : 16 bits\nCompression mode : Lossy\nStream size : 171 MiB (14%)\nAlignment : Aligned on interleaves\nInterleave, duration : 35 ms (0.87 video frame)","torrent":{"xt":"urn:btih:dcc1f266d86fa5f624e11a4315e3625f65fdabb3","amp;dn":"Fifty+Shades+of+Grey+2015+UNCUT+HC+HDRIP+XViD+AC3+MURD3R","amp;tr":["udp%3A%2F%2Ftracker.openbittorrent.com%3A80","udp%3A%2F%2Fopen.demonii.com%3A1337","udp%3A%2F%2Ftracker.coppersurfer.tk%3A6969","udp%3A%2F%2Fexodus.desync.com%3A6969"],"infoHash":"dcc1f266d86fa5f624e11a4315e3625f65fdabb3","infoHashBuffer":{"type":"Buffer","data":[220,193,242,102,216,111,165,246,36,225,26,67,21,227,98,95,101,253,171,179]},"announce":[],"urlList":[]}}